<?xml version="1.0" standalone="no"?>
<!DOCTYPE svg PUBLIC "-//W3C//DTD SVG 20010904//EN"
 "http://www.w3.org/TR/2001/REC-SVG-20010904/DTD/svg10.dtd">
<svg version="1.0" xmlns="http://www.w3.org/2000/svg"
 width="720.000000pt" height="720.000000pt" viewBox="0 0 720.000000 720.000000"
 preserveAspectRatio="xMidYMid meet">
<metadata>
Created by potrace 1.11, written by Peter Selinger 2001-2013
</metadata>
<g transform="translate(0.000000,720.000000) scale(0.100000,-0.100000)"
fill="#000000" stroke="none">
<path d="M137 7180 c3 -11 9 -20 13 -20 4 0 10 -12 14 -27 3 -16 10 -45 15
-65 5 -21 5 -36 1 -33 -9 6 -24 -84 -16 -93 3 -3 6 0 6 6 0 7 4 12 9 12 5 0 7
-36 4 -80 -2 -48 0 -87 7 -100 9 -16 8 -25 -1 -36 -9 -11 -9 -21 1 -45 8 -18
9 -34 4 -37 -33 -24 -36 -83 -3 -75 23 6 24 -1 3 -26 -10 -11 -24 -17 -33 -14
-11 4 -11 1 3 -9 19 -15 14 -44 -6 -32 -7 4 -8 2 -4 -5 4 -6 11 -9 15 -7 4 3
13 1 21 -5 13 -7 13 -9 -1 -9 -12 0 -14 -8 -11 -30 2 -17 10 -30 18 -30 8 0
14 -4 14 -10 0 -5 -6 -10 -14 -10 -18 0 -30 -33 -21 -60 3 -11 2 -20 -4 -20
-5 0 -11 6 -14 13 -2 6 -2 1 -1 -13 2 -14 -3 -36 -10 -49 -11 -20 -11 -33 -1
-73 10 -34 10 -59 3 -84 -7 -25 -6 -39 3 -50 14 -16 -2 -41 -36 -54 -15 -7
-16 -9 -3 -9 12 -1 18 -14 23 -53 5 -39 13 -59 32 -74 21 -18 23 -25 14 -43
-7 -12 -9 -36 -6 -55 7 -32 5 -34 -32 -43 -28 -6 -39 -14 -41 -31 -3 -19 1
-22 33 -22 37 0 82 -29 58 -37 -7 -3 -15 -19 -19 -38 -8 -46 -44 -41 -50 8 -1
12 -3 25 -3 30 -1 4 -6 7 -12 7 -6 0 -9 -14 -7 -32 2 -26 -1 -33 -15 -32 -21
2 -22 -9 -2 -26 8 -7 15 -20 15 -29 0 -14 2 -14 11 -1 9 13 10 13 7 0 -3 -9
-28 -21 -61 -29 -31 -7 -57 -18 -57 -24 0 -6 10 -21 22 -34 l22 -24 -21 -5
-22 -6 -1 -1094 c0 -602 2 -1094 4 -1094 3 0 16 4 29 9 24 9 31 26 42 106 2
17 8 50 14 75 6 25 10 71 11 102 0 31 4 60 10 63 5 3 7 19 3 35 -3 17 -1 36 5
43 6 7 14 44 16 83 3 38 10 70 16 72 7 3 8 8 1 16 -6 8 -5 22 4 41 7 17 23
118 35 225 12 107 28 233 36 280 8 47 14 118 14 157 -1 76 6 117 19 109 9 -6
7 31 -2 40 -4 4 -7 17 -7 28 0 17 2 18 10 6 7 -11 10 -6 9 20 -1 19 4 64 10
100 7 36 13 79 15 95 1 17 4 35 8 40 8 13 -2 75 -12 75 -12 0 1 42 24 76 33
48 88 91 124 96 18 3 35 1 38 -4 3 -4 13 -8 23 -8 24 0 52 -31 33 -37 -23 -8
-33 -40 -21 -67 11 -24 107 -74 170 -89 57 -14 108 103 63 147 -8 9 -13 16
-10 16 3 0 -2 16 -10 36 -12 29 -13 39 -3 45 7 4 13 24 14 46 2 51 -23 74 -72
66 -27 -5 -34 -3 -29 6 5 7 16 9 29 5 20 -6 20 -5 8 10 -8 10 -25 16 -40 14
-14 -2 -32 4 -38 12 -11 13 -14 13 -23 0 -8 -12 -10 -12 -10 -1 0 10 -3 11
-13 3 -8 -7 -18 -7 -27 -2 -20 13 -77 12 -102 -1 -41 -22 -99 40 -98 106 1 58
7 120 14 148 8 27 -8 62 -24 52 -4 -3 -14 5 -22 18 -14 20 -13 24 8 42 13 11
24 26 24 33 0 6 4 12 9 12 15 0 25 41 22 86 -1 23 2 45 8 49 6 3 11 20 11 36
0 17 9 51 21 76 16 36 18 47 8 54 -10 6 -10 16 0 48 6 23 9 46 6 51 -4 6 0 13
8 15 10 4 13 23 12 71 -1 35 2 67 7 70 5 3 6 14 3 24 -8 24 14 101 32 116 9 8
12 29 10 67 -2 36 0 54 6 50 6 -4 8 0 4 9 -3 9 1 35 9 58 8 24 14 55 12 69 -2
17 4 32 18 43 22 18 38 68 22 68 -5 0 4 14 21 31 17 17 31 36 31 42 0 7 11 22
24 34 25 24 34 56 43 156 l5 57 -270 0 c-265 0 -270 0 -265 -20z m55 -202 c-9
-9 -12 -7 -12 12 0 19 3 21 12 12 9 -9 9 -15 0 -24z m58 -842 c0 -15 -14 -35
-21 -30 -15 9 -10 34 6 34 8 0 15 -2 15 -4z m-30 -202 c0 -41 -4 -63 -10 -59
-11 7 -13 48 -4 94 10 48 14 37 14 -35z m427 -768 c-15 -16 -37 -4 -37 20 0
18 23 23 38 7 11 -11 11 -15 -1 -27z m-47 -7 c0 -5 -4 -9 -10 -9 -5 0 -10 7
-10 16 0 8 5 12 10 9 6 -3 10 -10 10 -16z"/>
<path d="M3053 7188 c-1 -7 -4 -35 -7 -63 -3 -27 -11 -102 -17 -165 -8 -83
-17 -123 -30 -142 -10 -15 -19 -34 -19 -42 0 -18 -17 -30 -22 -16 -1 5 -21 12
-43 13 -22 2 -48 7 -58 12 -9 4 -26 5 -37 2 -11 -3 -18 -2 -17 2 6 19 -34 49
-80 61 -29 8 -53 17 -53 22 0 4 -18 6 -40 4 -22 -2 -38 0 -35 4 3 5 -3 11 -14
15 -17 5 -26 21 -36 63 -2 6 2 12 8 13 7 1 -8 7 -33 13 -42 12 -121 12 -198 0
-24 -4 -32 -9 -28 -20 4 -9 -1 -14 -15 -14 -11 0 -17 4 -14 10 3 6 -1 7 -9 4
-14 -5 -21 -24 -17 -46 0 -5 -3 -8 -7 -8 -5 0 -18 -9 -30 -21 -26 -23 -46 -20
-88 16 -16 14 -36 25 -44 25 -13 0 -13 1 0 10 9 6 10 10 3 10 -6 0 -19 -7 -27
-16 -9 -8 -32 -16 -51 -17 -19 -1 -35 -6 -35 -11 0 -4 -10 -6 -21 -3 -12 3
-28 0 -36 -9 -8 -8 -11 -14 -6 -14 5 0 15 6 22 13 10 10 10 7 3 -13 -5 -14
-23 -32 -40 -41 -17 -9 -60 -35 -96 -59 -50 -32 -72 -41 -91 -36 -14 4 -25 11
-25 17 0 6 5 7 10 4 6 -3 10 -2 10 4 0 17 -33 28 -60 21 -14 -3 -38 -3 -55 1
-26 6 -99 6 -115 -1 -3 -1 6 -6 20 -10 24 -8 23 -8 -8 -9 -39 -1 -102 -39
-126 -76 -10 -15 -23 -24 -31 -21 -14 5 -29 -20 -19 -35 3 -5 -3 -9 -13 -9
-10 0 -24 -9 -30 -20 -11 -16 -10 -18 1 -14 20 8 32 -17 15 -30 -8 -6 -13 -20
-11 -31 4 -17 2 -18 -12 -6 -15 12 -20 8 -17 -12 2 -13 -31 -121 -40 -133 -12
-15 44 -64 72 -64 10 0 19 -4 19 -10 0 -5 11 -10 25 -10 14 0 25 4 25 8 0 4
16 14 35 21 19 7 35 17 35 22 0 5 9 0 20 -11 11 -11 20 -25 20 -31 0 -6 9 -8
20 -4 14 4 22 1 27 -12 9 -26 39 -63 46 -57 3 3 12 1 19 -5 39 -33 61 -51 65
-51 2 0 31 18 64 40 33 22 68 40 77 40 32 -1 91 -68 78 -89 -3 -4 16 -8 42 -8
26 0 54 -1 63 -2 8 0 24 -18 35 -38 14 -26 26 -37 38 -35 11 2 15 -1 11 -7 -4
-7 1 -8 12 -4 22 8 73 59 73 73 0 37 98 68 117 37 12 -21 43 -29 43 -12 0 8 5
15 10 15 6 0 10 9 10 19 0 27 10 51 22 51 6 0 8 -7 5 -14 -4 -10 -1 -13 9 -9
10 4 14 -3 14 -27 0 -29 2 -32 23 -25 12 3 31 9 43 12 26 6 44 71 37 134 -5
41 -3 47 16 52 11 3 21 1 21 -4 0 -4 6 -6 13 -4 6 3 27 -9 46 -27 19 -18 29
-34 23 -36 -8 -2 -8 -10 0 -28 9 -18 9 -27 0 -36 -9 -9 -12 -9 -12 0 0 7 -7
12 -15 12 -8 0 -15 -4 -15 -10 0 -14 66 -23 97 -13 32 10 73 6 73 -8 0 -5 9
-9 20 -9 11 0 20 -5 20 -11 0 -7 11 -9 31 -5 25 5 32 2 36 -13 8 -30 27 -32
90 -11 62 21 93 25 93 12 0 -4 30 -40 68 -80 41 -45 66 -78 63 -89 -3 -15 -1
-15 13 -4 19 16 46 8 46 -13 0 -8 5 -18 11 -22 7 -4 10 7 7 37 -2 36 0 44 15
47 18 4 66 -41 68 -63 1 -5 3 -28 5 -49 1 -22 8 -42 13 -45 22 -14 31 -161 16
-256 -10 -64 -8 -197 3 -204 16 -10 20 -63 5 -59 -5 0 -15 -2 -23 -5 -8 -3
-23 -7 -34 -9 -17 -3 -76 -96 -76 -120 0 -6 -10 -23 -21 -40 -18 -25 -20 -38
-15 -90 7 -56 5 -61 -19 -84 -20 -19 -30 -22 -45 -14 -10 5 -23 10 -28 10 -16
0 -31 -88 -37 -220 -3 -69 -12 -152 -20 -185 -7 -33 -14 -121 -14 -195 -2
-221 -47 -442 -108 -533 -18 -27 -33 -53 -33 -59 0 -5 -4 -6 -10 -3 -5 3 -10
-1 -10 -9 0 -15 -115 -123 -185 -173 -44 -32 -239 -145 -269 -156 -10 -4 -17
-9 -14 -12 6 -6 138 45 250 99 54 25 102 46 107 46 14 0 11 -49 -9 -135 -24
-102 -28 -129 -36 -248 -4 -56 -3 -102 2 -105 5 -4 20 -31 34 -59 14 -29 28
-53 33 -53 4 0 7 -8 7 -18 0 -10 11 -33 25 -52 14 -19 23 -41 20 -48 -3 -7 0
-22 5 -32 8 -15 4 -25 -21 -49 -22 -22 -29 -36 -23 -49 16 -37 14 -66 -7 -110
-57 -120 -173 -238 -295 -300 -75 -38 -260 -74 -344 -67 -19 2 -66 4 -105 5
-38 2 -88 6 -110 11 -22 4 -71 13 -108 19 -38 7 -108 30 -155 51 -92 41 -236
144 -271 194 -11 17 -31 41 -43 55 -21 23 -73 106 -107 172 -8 15 -22 37 -33
47 -10 11 -18 24 -18 29 0 5 -7 15 -15 22 -8 7 -15 21 -15 31 0 11 -5 19 -10
19 -6 0 -23 11 -38 25 -15 14 -32 25 -39 25 -7 0 -13 5 -13 10 0 6 -7 10 -16
10 -8 0 -12 -4 -9 -10 3 -5 1 -10 -4 -10 -6 0 -11 5 -11 11 0 14 -53 2 -94
-21 -56 -33 -147 -62 -175 -57 -16 4 -36 0 -47 -7 -10 -8 -23 -13 -29 -12 -5
0 -11 -16 -12 -38 0 -21 -7 -50 -14 -63 -12 -22 -11 -27 3 -37 10 -7 21 -24
26 -37 13 -35 15 -274 3 -344 -6 -33 -17 -103 -26 -155 -23 -140 -24 -145 -67
-275 -44 -132 -82 -231 -118 -310 -59 -132 -164 -318 -206 -364 -23 -25 -44
-56 -48 -68 -4 -11 -31 -60 -61 -107 -29 -47 -57 -96 -61 -109 -4 -12 -17 -35
-30 -50 l-24 -29 0 -474 0 -474 3600 0 3600 0 0 1277 c0 702 -3 1274 -6 1271
-3 -4 -5 -31 -5 -62 0 -31 -4 -54 -8 -51 -5 2 -9 -63 -10 -145 -1 -87 -6 -160
-13 -175 -8 -18 -8 -28 1 -39 8 -10 10 -27 6 -47 -4 -17 -10 -27 -14 -21 -3 5
-7 -29 -8 -76 0 -48 -4 -94 -7 -102 -3 -8 -8 -33 -10 -55 -3 -22 -5 -40 -7
-40 -2 0 -5 -23 -17 -113 -4 -35 -12 -66 -18 -70 -5 -4 -11 -20 -12 -37 -1
-16 -10 -36 -20 -43 -16 -13 -16 -14 1 -23 9 -6 17 -15 17 -22 0 -7 -4 -6 -10
3 -7 11 -11 9 -19 -13 -6 -16 -11 -45 -11 -65 0 -24 -3 -32 -9 -24 -10 16 -24
-98 -15 -125 4 -13 3 -15 -4 -5 -7 11 -11 7 -14 -13 -3 -16 -1 -28 7 -31 14
-6 8 -105 -8 -115 -5 -4 -6 -12 -2 -19 8 -14 -22 -100 -36 -100 -5 0 -9 -8 -9
-17 0 -27 -63 -152 -77 -152 -7 -1 -13 -10 -13 -22 0 -11 -14 -34 -31 -51 -17
-17 -37 -41 -46 -54 -8 -13 -23 -26 -34 -29 -10 -4 -19 -10 -19 -16 0 -16 -34
-49 -50 -49 -9 0 -30 -13 -48 -30 -39 -35 -84 -45 -160 -35 -32 4 -63 7 -69 8
-7 0 -13 4 -13 8 0 13 -40 17 -73 8 -24 -7 -33 -5 -40 6 -4 9 -22 15 -42 15
-18 0 -36 6 -39 13 -5 9 -7 9 -12 0 -4 -10 -10 -9 -21 3 -11 10 -26 14 -45 10
-16 -3 -28 -1 -28 5 0 6 -9 8 -20 4 -12 -4 -26 0 -36 9 -8 9 -27 16 -42 16
-15 0 -34 4 -42 10 -9 5 -19 5 -27 -2 -9 -7 -17 -7 -26 0 -7 6 -35 16 -62 22
-28 7 -69 19 -93 26 -23 8 -56 14 -72 14 -17 0 -30 4 -30 9 0 4 -27 11 -60 15
-33 4 -76 14 -95 21 -19 8 -47 15 -62 15 -16 0 -38 7 -50 15 -12 8 -29 12 -38
9 -9 -4 -20 -3 -24 2 -3 5 -40 20 -81 33 -41 14 -79 27 -85 30 -5 3 -14 6 -20
8 -5 1 -41 14 -80 28 -38 15 -90 35 -115 44 -25 9 -54 22 -65 29 -11 6 -49 27
-85 45 -161 84 -247 131 -285 157 -22 15 -51 31 -64 35 -22 7 -151 83 -161 95
-7 9 -351 178 -377 185 -13 4 -41 -2 -67 -13 -49 -22 -90 -78 -145 -196 -17
-36 -35 -68 -41 -71 -6 -4 -8 -10 -5 -15 3 -5 -3 -18 -15 -30 -11 -11 -20 -28
-20 -37 -1 -48 -32 63 -41 148 -11 105 -8 126 34 219 57 124 129 211 256 304
88 65 174 146 155 146 -6 0 -19 -9 -29 -20 -10 -11 -41 -34 -69 -51 -28 -18
-69 -44 -91 -59 -22 -15 -50 -30 -62 -34 -31 -10 -171 -165 -206 -228 -16 -29
-34 -59 -40 -66 -18 -22 -23 -9 -92 248 -21 74 -43 155 -50 180 -41 140 -90
444 -101 620 -5 94 -3 122 9 153 16 36 15 39 -4 58 -26 26 -69 117 -69 145 0
23 58 74 84 74 9 0 16 7 16 15 0 9 -6 12 -15 9 -12 -5 -15 3 -17 32 -1 22 -1
50 0 64 1 14 3 61 4 105 2 52 9 92 21 114 9 19 17 43 17 54 0 27 42 147 52
147 4 0 13 11 20 25 8 14 34 46 59 73 25 26 56 63 69 82 13 19 28 38 33 41 4
3 9 13 11 22 1 9 13 32 27 49 13 18 24 40 25 48 1 8 2 27 3 43 0 17 7 27 16
27 10 0 17 14 21 40 5 30 16 48 43 70 19 17 41 30 47 30 6 0 28 19 48 43 56
64 57 65 46 72 -15 9 -12 25 5 25 8 0 15 5 15 11 0 12 59 101 73 110 5 3 8 9
8 13 -3 21 2 26 27 26 22 0 24 2 12 11 -11 7 -3 9 30 4 25 -3 57 -7 71 -8 18
-1 25 -7 21 -16 -4 -10 2 -12 26 -6 21 4 32 3 32 -4 0 -6 -9 -11 -19 -11 -24
0 -33 -13 -25 -34 9 -22 21 -20 30 6 l6 21 18 -23 c11 -15 19 -19 24 -11 4 6
2 11 -3 11 -6 0 -11 6 -11 14 0 12 7 12 35 5 23 -7 41 -6 54 1 11 5 31 10 46
10 15 0 24 4 20 10 -3 6 -2 10 3 10 6 0 8 -17 5 -40 -4 -26 -2 -40 6 -40 6 0
11 8 11 18 0 22 30 52 51 52 10 -1 9 -4 -4 -11 -25 -15 -11 -29 29 -29 27 0
34 -4 32 -17 -4 -25 24 -27 50 -4 22 18 62 18 62 0 0 -19 21 -8 32 16 7 17 17
24 26 20 9 -3 18 -1 22 5 10 16 70 -37 70 -62 0 -17 2 -18 15 -8 12 10 21 10
41 1 14 -6 29 -9 34 -6 4 3 6 -4 3 -15 -4 -15 0 -20 15 -20 13 0 22 -9 26 -25
4 -14 11 -25 16 -25 6 0 11 -15 11 -32 1 -18 3 -25 6 -15 2 9 11 17 19 17 8 0
17 7 20 15 4 8 14 15 24 15 16 0 17 -4 8 -37 -7 -27 -7 -38 1 -41 6 -2 11 -10
11 -18 0 -8 9 -14 21 -14 11 0 29 -5 40 -10 13 -7 19 -7 19 0 0 15 37 12 43
-4 10 -26 46 -26 73 0 13 14 22 30 19 35 -4 5 1 12 9 15 9 3 16 12 16 19 0 8
9 10 28 7 32 -6 42 -18 42 -52 0 -22 7 -28 45 -39 25 -7 45 -19 45 -27 0 -19
24 -18 40 1 13 16 65 21 56 6 -9 -15 22 -33 44 -26 17 5 20 2 20 -24 0 -24 -4
-31 -20 -31 -11 0 -20 -5 -20 -12 0 -6 3 -8 7 -5 3 4 12 2 20 -4 10 -9 13 -8
13 5 0 9 4 16 9 16 6 0 11 19 13 42 3 36 7 44 30 52 18 6 35 6 50 -1 13 -6 31
-14 41 -17 26 -8 20 -41 -10 -56 l-28 -13 30 -8 c28 -6 27 -7 -12 -8 -36 -1
-43 -4 -43 -21 0 -16 7 -20 38 -20 49 0 70 -13 54 -33 -13 -16 -4 -28 30 -40
12 -4 16 -15 14 -34 -2 -15 -4 -40 -5 -55 -1 -24 -5 -28 -31 -28 -29 0 -30 -2
-28 -42 1 -37 2 -39 5 -10 5 36 11 39 39 16 10 -8 13 -12 5 -8 -9 4 -12 3 -8
-4 12 -18 47 -1 47 22 0 28 15 50 28 42 5 -3 12 1 16 9 3 8 12 15 21 15 11 0
15 -11 15 -46 0 -44 1 -46 25 -42 21 5 25 2 20 -13 -5 -14 -1 -19 12 -19 19 0
43 -18 43 -32 0 -4 -4 -8 -10 -8 -5 0 -10 6 -10 14 0 9 -20 15 -61 20 -93 9
-99 8 -99 -14 0 -22 10 -26 28 -8 8 8 14 4 23 -16 8 -17 23 -29 42 -33 16 -3
31 -12 34 -19 7 -18 59 -18 66 0 3 8 15 20 26 26 19 10 20 8 14 -21 -5 -29 -4
-32 14 -27 40 11 74 -32 37 -46 -9 -4 -14 -13 -10 -21 12 -32 -31 -53 -112
-56 -116 -4 -187 1 -190 11 -2 6 -15 10 -29 10 -16 0 -23 -5 -20 -12 7 -20
-85 -10 -101 10 -10 14 -27 16 -85 14 -40 -1 -85 -8 -101 -14 -22 -9 -31 -9
-33 -1 -3 7 -11 9 -19 6 -8 -3 -23 2 -34 12 -19 17 -57 14 -45 -4 3 -5 1 -12
-5 -16 -5 -3 -10 2 -10 13 0 17 -10 20 -102 25 -58 4 -104 11 -108 18 -6 8 -9
8 -14 0 -4 -6 -16 -11 -27 -11 -24 0 -39 -36 -33 -76 3 -16 6 -37 7 -48 1 -15
6 -13 29 15 15 18 35 34 43 35 9 1 26 8 38 16 14 8 40 11 72 8 49 -5 50 -6 52
-39 2 -42 24 -60 36 -28 8 20 9 21 18 4 6 -9 12 -26 14 -36 2 -10 15 -30 29
-44 19 -20 26 -36 26 -67 0 -42 18 -55 27 -20 3 11 11 20 18 20 22 0 40 29 27
42 -18 18 -14 28 11 29 21 0 21 1 2 9 -19 8 -19 9 3 9 12 1 22 7 22 15 0 7
-10 21 -22 29 l-23 16 23 0 c13 1 22 7 22 17 0 8 5 12 11 8 6 -3 8 -17 5 -30
-5 -19 -2 -24 14 -24 11 0 20 -6 20 -12 0 -7 3 -24 6 -38 4 -23 4 -22 -8 3
-13 29 -13 29 -31 9 -17 -18 -17 -21 -2 -36 16 -16 29 -20 53 -17 6 1 12 -5
12 -14 0 -8 8 -15 19 -15 20 0 81 -111 81 -149 0 -13 6 -21 18 -21 11 0 22
-13 30 -37 20 -59 20 -67 6 -88 -8 -11 -14 -29 -14 -40 0 -19 -2 -19 -19 4
l-18 24 -11 -34 c-5 -19 -13 -48 -16 -65 -5 -29 -3 -31 25 -32 28 -1 29 0 23
39 -4 26 -3 39 5 39 6 0 11 -17 11 -40 0 -38 13 -54 23 -27 3 7 8 5 13 -8 14
-37 52 -68 75 -62 35 9 57 -8 51 -39 -4 -24 -2 -26 14 -20 41 17 50 16 87 -15
31 -25 36 -34 26 -46 -10 -11 -7 -19 14 -39 15 -14 32 -22 39 -18 7 5 8 3 3
-5 -4 -8 1 -18 14 -28 15 -10 20 -21 16 -34 -4 -13 -2 -19 9 -19 9 0 13 6 10
13 -2 7 4 24 15 36 21 24 29 24 105 5 20 -5 26 -2 26 10 0 9 4 16 10 16 5 0 7
-12 4 -27 -6 -34 11 -65 25 -44 6 9 11 10 15 2 4 -6 2 -11 -3 -11 -6 0 -11 -4
-11 -9 0 -16 92 -24 101 -9 13 20 11 -6 -3 -39 -6 -15 -12 -39 -13 -53 -2 -27
-35 -90 -48 -90 -4 0 -11 -10 -16 -22 -7 -19 -14 -22 -59 -19 -30 1 -52 -2
-52 -7 0 -6 18 -8 41 -6 36 5 41 3 35 -11 -3 -9 -6 -23 -6 -31 0 -8 -10 -14
-25 -14 -25 0 -33 -14 -15 -25 6 -3 10 -1 10 4 0 6 7 11 15 11 20 0 19 -13 -5
-41 -14 -18 -19 -20 -20 -8 0 8 -7 24 -15 35 -14 17 -15 12 -13 -63 3 -76 1
-83 -18 -87 -39 -10 -69 -46 -71 -84 -4 -65 -7 -81 -16 -75 -4 2 -14 -1 -22
-7 -11 -9 -15 -9 -15 -1 0 6 6 11 13 11 7 1 5 6 -5 14 -27 20 -23 39 7 32 20
-5 25 -3 25 14 0 11 -4 20 -9 20 -15 0 -21 41 -14 101 5 46 10 59 29 70 31 16
31 37 0 49 -32 12 -39 25 -26 50 8 16 15 18 29 11 20 -11 41 3 41 26 0 7 5 13
10 13 18 0 10 32 -9 37 -22 6 -46 46 -37 62 4 6 16 11 28 11 14 0 18 5 14 16
-3 9 -6 20 -6 26 0 5 -12 8 -27 6 -23 -2 -29 1 -31 20 -2 12 -7 20 -12 17 -5
-3 -11 -1 -14 4 -3 5 -22 4 -44 -2 -34 -9 -41 -8 -61 12 -17 17 -20 26 -11 36
8 9 8 15 0 20 -5 3 -10 -1 -10 -10 0 -24 -24 -12 -28 13 -2 12 -8 22 -13 22
-5 0 -9 5 -9 11 0 6 9 9 20 6 11 -3 20 -1 20 4 0 5 -9 9 -20 9 -11 0 -20 7
-20 15 0 13 -17 20 -41 17 -4 -1 -15 8 -25 19 -17 19 -17 20 1 13 14 -6 16 -4
10 7 -7 11 -6 12 7 2 18 -16 27 -8 21 18 -6 23 -11 24 -36 1 -11 -9 -17 -12
-14 -5 4 6 3 14 -2 18 -5 3 -14 -2 -19 -11 -5 -9 -15 -14 -21 -10 -6 4 -9 11
-6 16 3 4 -2 10 -10 14 -18 6 -19 1 -5 -25 9 -15 7 -19 -6 -19 -9 0 -34 -14
-55 -31 -21 -17 -39 -28 -39 -26 0 13 -58 -51 -64 -71 -4 -12 -12 -22 -17 -22
-5 0 -9 -10 -9 -22 0 -13 -5 -30 -10 -38 -8 -12 -10 -10 -10 8 0 15 -5 22 -12
19 -7 -2 -20 2 -29 9 -12 11 -19 11 -32 1 -14 -10 -15 -18 -7 -46 5 -19 11
-50 12 -68 1 -20 14 -47 30 -66 15 -18 27 -37 28 -43 0 -6 10 -23 21 -38 12
-15 22 -41 24 -57 1 -16 5 -32 8 -35 8 -9 -8 -57 -21 -62 -7 -2 -10 2 -6 11 3
8 0 18 -7 23 -7 4 -15 2 -17 -4 -6 -18 -30 -14 -54 8 -12 11 -35 20 -51 20
-21 0 -39 9 -58 31 -15 17 -32 28 -37 25 -5 -3 -21 3 -35 14 -14 11 -29 20
-34 20 -5 0 -16 11 -23 25 -7 14 -19 25 -26 25 -7 0 -19 9 -27 20 -8 11 -17
17 -20 13 -4 -3 -7 -2 -7 4 0 5 -11 23 -25 39 -14 16 -25 31 -25 34 0 3 -13
11 -30 18 -16 8 -30 20 -30 29 0 8 -9 17 -20 20 -11 3 -20 10 -20 15 0 5 -4 6
-10 3 -6 -4 -7 1 -3 11 5 13 2 15 -15 9 -23 -7 -31 9 -9 19 6 3 2 3 -11 0 -18
-4 -25 -1 -29 15 -3 12 -13 21 -24 21 -10 0 -21 5 -24 10 -3 6 -14 10 -23 10
-9 0 -39 22 -67 50 -27 27 -55 49 -62 50 -6 0 -20 15 -30 33 -17 29 -19 47
-15 179 5 161 1 179 -52 258 -39 59 -91 108 -154 145 -29 17 -52 36 -52 42 0
7 -8 26 -18 41 -14 24 -19 27 -30 16 -6 -7 -12 -20 -12 -29 0 -8 -6 -15 -14
-15 -8 0 -16 -7 -19 -15 -4 -8 -32 -22 -64 -31 -82 -24 -155 -59 -178 -86 -12
-12 -38 -50 -60 -83 -22 -33 -44 -63 -50 -68 -5 -4 -28 -4 -50 -1 l-40 6 38
-26 c21 -14 42 -26 47 -26 6 0 10 -4 10 -8 0 -8 125 -92 190 -128 19 -10 39
-24 45 -30 5 -6 48 -40 95 -75 77 -57 152 -119 249 -204 19 -16 50 -47 70 -68
73 -78 153 -128 466 -287 121 -61 246 -132 278 -156 31 -24 60 -44 65 -44 9 0
93 -57 195 -133 102 -75 233 -148 254 -140 12 5 14 3 8 -6 -5 -10 -2 -11 12
-7 12 4 25 1 33 -9 6 -8 27 -17 46 -21 19 -3 37 -10 40 -15 3 -5 16 -9 30 -9
14 0 34 -5 44 -10 24 -13 35 3 14 21 -33 27 -1 131 80 264 31 50 60 104 119
220 25 50 50 95 55 100 4 6 9 12 9 15 4 15 18 51 39 100 108 257 129 315 175
485 6 22 17 55 25 73 8 18 14 40 14 49 0 20 29 122 42 147 5 10 15 56 21 102
6 46 15 84 19 84 4 0 8 15 8 33 0 17 5 48 10 67 16 52 13 244 -4 295 -8 23
-13 51 -10 62 8 29 -18 44 -86 49 -78 6 -158 36 -215 79 -24 19 -56 40 -72 48
-38 20 -73 52 -73 66 0 12 40 6 73 -11 24 -12 66 5 89 37 15 20 16 33 9 96 -5
39 -14 75 -19 78 -12 8 -21 71 -10 77 9 6 -9 44 -21 44 -5 0 -14 -12 -20 -27
-9 -22 -8 -46 4 -108 24 -127 24 -137 1 -157 -27 -22 -54 -14 -88 25 -26 31
-26 31 -6 49 19 16 19 17 -21 38 l-41 20 0 -55 c0 -51 -2 -56 -31 -71 -24 -12
-37 -13 -54 -6 -26 12 -71 68 -76 95 -2 10 -8 18 -14 19 -5 0 -22 9 -37 20
-32 22 -38 10 -8 -17 28 -26 25 -47 -12 -68 -26 -15 -29 -20 -17 -28 12 -8 12
-10 -1 -18 -8 -5 -19 -7 -24 -4 -18 12 -54 9 -49 -3 6 -16 -27 -27 -42 -14 -6
5 -12 27 -13 47 -1 21 -6 39 -12 41 -19 7 -11 42 10 42 22 0 27 -15 8 -24 -16
-6 49 -66 72 -66 29 0 29 12 1 36 -18 15 -31 38 -36 61 -7 39 -29 73 -87 134
-33 35 -46 73 -27 84 5 4 9 28 9 55 0 27 5 52 10 55 6 3 10 18 10 33 0 15 8
62 17 105 22 98 52 138 103 138 19 -1 97 0 174 0 98 1 136 -2 132 -10 -11 -18
16 -13 38 7 20 18 132 49 142 40 2 -3 -14 -13 -36 -24 -22 -10 -40 -22 -40
-26 0 -16 67 -29 95 -18 25 10 145 19 283 23 23 1 42 4 42 7 0 3 13 6 29 7 20
1 41 -8 70 -33 69 -59 54 -75 -59 -62 -36 4 -85 7 -110 7 l-45 -1 35 -15 c19
-9 55 -17 80 -19 25 -1 57 -7 72 -13 15 -6 35 -8 43 -5 8 4 15 1 15 -5 0 -6
14 -11 31 -11 57 0 109 -21 115 -47 4 -12 10 -23 15 -23 5 0 9 -8 9 -18 0 -10
9 -36 19 -58 10 -21 22 -61 26 -89 4 -27 16 -70 27 -95 12 -25 23 -64 26 -87
3 -26 9 -40 15 -36 6 4 8 0 4 -11 -4 -10 -7 -27 -7 -39 0 -16 -3 -18 -9 -9 -5
9 -10 -4 -15 -37 -4 -27 -11 -53 -16 -56 -6 -4 -10 -18 -10 -33 0 -15 -2 -41
-6 -59 -6 -30 -3 -33 37 -51 46 -21 59 -20 59 4 0 8 6 14 14 14 7 0 16 10 20
23 3 12 6 802 6 1755 l0 1732 -2073 0 c-1652 0 -2074 -3 -2074 -12z m-706
-214 c-3 -3 -12 -4 -19 -1 -8 3 -5 6 6 6 11 1 17 -2 13 -5z m-557 -468 c0 -18
-23 -27 -41 -15 -12 8 -12 10 1 19 22 14 40 12 40 -4z m738 -13 c14 -13 22
-36 26 -76 6 -53 5 -56 -11 -46 -33 21 -83 91 -83 115 0 19 5 24 24 24 13 0
33 -8 44 -17z m833 -1450 c16 -38 20 -71 21 -192 l2 -146 -48 -123 c-26 -67
-66 -150 -89 -185 -23 -34 -49 -75 -57 -91 -16 -32 -75 -76 -102 -76 -9 0 -27
10 -39 23 -19 20 -20 28 -13 87 4 36 6 98 5 139 -4 113 15 203 54 259 43 64
75 130 75 159 0 13 17 40 40 64 22 23 40 46 40 51 0 12 70 78 82 78 5 0 18
-21 29 -47z m3247 -399 c12 -8 22 -19 22 -24 0 -16 -77 -31 -145 -28 -55 3
-62 5 -48 16 9 6 20 12 25 12 4 0 17 9 28 20 24 24 86 27 118 4z m-2215 -371
c-7 -2 -21 -2 -30 0 -10 3 -4 5 12 5 17 0 24 -2 18 -5z m-193 -13 c0 -5 -4
-10 -10 -10 -5 0 -10 5 -10 10 0 6 5 10 10 10 6 0 10 -4 10 -10z m413 -7 c-7
-2 -19 -2 -25 0 -7 3 -2 5 12 5 14 0 19 -2 13 -5z m260 -20 c-7 -2 -19 -2 -25
0 -7 3 -2 5 12 5 14 0 19 -2 13 -5z m217 -83 c0 -5 -4 -10 -10 -10 -5 0 -10 5
-10 10 0 6 5 10 10 10 6 0 10 -4 10 -10z m-130 -35 c0 -11 -11 -15 -39 -15
-22 0 -44 6 -51 15 -11 13 -6 15 39 15 39 0 51 -4 51 -15z m50 -40 c0 -15 -6
-25 -14 -25 -19 0 -28 14 -20 34 10 25 34 19 34 -9z m760 -64 c0 -6 -8 -11
-19 -11 -18 0 -36 45 -24 63 5 9 43 -36 43 -52z m-699 2 c8 -9 9 -14 3 -10 -7
4 -14 0 -18 -8 -3 -8 -15 -15 -27 -15 -15 0 -19 4 -15 16 3 9 6 20 6 25 0 15
37 10 51 -8z m271 -23 c-14 -15 -22 -18 -27 -10 -4 6 -5 12 -4 13 2 1 13 7 24
13 28 16 31 9 7 -16z m258 20 c0 -5 -4 -10 -10 -10 -5 0 -10 5 -10 10 0 6 5
10 10 10 6 0 10 -4 10 -10z m164 -61 c-3 -5 -11 -3 -18 4 -18 16 -8 31 10 16
7 -6 11 -15 8 -20z m-5 -102 c-13 -11 -19 -22 -14 -24 48 -17 42 -44 -7 -34
-24 5 -34 13 -36 29 -2 13 2 22 10 22 7 0 21 9 31 20 10 12 23 18 29 14 7 -5
3 -14 -13 -27z m31 -178 c0 -5 -7 -9 -15 -9 -9 0 -15 9 -15 21 0 18 2 19 15 9
8 -7 15 -16 15 -21z m65 3 c-3 -3 -11 0 -18 7 -9 10 -8 11 6 5 10 -3 15 -9 12
-12z m73 -219 c16 -16 16 -16 -1 -10 -10 4 -34 7 -53 7 -19 0 -34 5 -34 10 0
17 70 11 88 -7z m245 -90 c-19 -7 -16 -30 5 -35 31 -7 50 2 45 23 -3 10 0 19
6 19 9 0 16 -28 12 -53 -1 -4 12 -1 29 8 23 12 35 13 50 5 61 -33 -37 -88
-100 -56 -22 10 -46 13 -80 9 -55 -6 -75 6 -77 47 -3 32 12 40 72 39 28 0 44
-3 38 -6z m340 -40 c-7 -2 -19 -2 -25 0 -7 3 -2 5 12 5 14 0 19 -2 13 -5z
m-49 -9 c9 -3 16 -12 16 -19 0 -14 75 -27 109 -18 19 5 22 2 19 -13 -4 -22
-52 -32 -72 -15 -6 6 -22 8 -34 4 -15 -3 -22 -1 -22 8 0 7 -7 4 -16 -9 -8 -12
-21 -22 -27 -22 -32 0 -86 22 -92 37 -8 23 18 42 49 36 13 -3 27 0 30 6 8 12
17 14 40 5z m-871 -111 c-7 -2 -19 -2 -25 0 -7 3 -2 5 12 5 14 0 19 -2 13 -5z
m58 -12 c-8 -5 -20 -7 -28 -4 -21 8 -15 13 15 13 20 0 23 -3 13 -9z m663 -750
c3 -4 -3 -16 -14 -26 -19 -17 -20 -17 -20 2 0 29 22 45 34 24z m6 -45 c0 -3
-4 -8 -10 -11 -5 -3 -10 -1 -10 4 0 6 5 11 10 11 6 0 10 -2 10 -4z m41 -26 c5
0 9 -7 9 -15 0 -9 -9 -15 -24 -15 -13 0 -26 -5 -28 -12 -7 -19 -38 -1 -38 22
0 23 10 26 28 8 9 -9 12 -8 12 6 0 12 5 16 16 12 9 -3 20 -6 25 -6z m-426
-350 c3 -5 1 -10 -4 -10 -6 0 -11 5 -11 10 0 6 2 10 4 10 3 0 8 -4 11 -10z
m-1 -36 c3 -8 2 -12 -4 -9 -6 3 -10 -5 -10 -19 0 -14 6 -26 13 -26 8 0 7 -3
-3 -10 -12 -7 -12 -12 4 -29 17 -19 17 -20 -3 -40 -23 -23 -29 -97 -11 -131 9
-16 6 -21 -14 -26 -31 -7 -97 23 -104 48 -2 10 -13 18 -23 18 -15 0 -19 7 -19
40 0 22 5 40 11 40 6 0 9 6 6 13 -6 16 24 67 40 67 7 0 13 6 14 13 0 10 2 10
6 0 6 -17 28 -16 42 1 8 10 9 16 1 21 -14 8 -3 24 24 35 11 5 22 9 22 9 1 1 5
-6 8 -15z m1233 -56 c-3 -8 -6 -5 -6 6 -1 11 2 17 5 13 3 -3 4 -12 1 -19z
m-1160 -110 c-3 -8 -6 -5 -6 6 -1 11 2 17 5 13 3 -3 4 -12 1 -19z m-1647 -765
c0 -5 18 -9 40 -9 22 -1 47 -9 55 -18 9 -9 25 -16 36 -16 11 0 17 -5 14 -10
-3 -6 2 -13 12 -17 10 -4 29 -17 43 -30 14 -13 29 -23 34 -23 5 0 17 -7 27
-16 10 -9 32 -23 51 -32 18 -10 37 -26 43 -38 6 -11 16 -19 23 -16 6 2 12 -2
12 -8 0 -10 4 -10 15 0 12 10 15 9 15 -5 0 -11 5 -15 15 -11 10 3 19 -1 23
-12 4 -9 16 -17 27 -17 14 0 19 -6 17 -17 -2 -10 2 -18 8 -18 5 0 10 4 10 9 0
12 41 2 61 -15 9 -8 19 -11 23 -7 4 5 6 2 4 -5 -3 -14 3 -18 56 -43 15 -8 32
-23 37 -34 4 -11 8 -14 8 -7 1 19 31 14 39 -7 4 -11 9 -20 12 -20 5 0 11 -1
51 -14 17 -6 26 -77 9 -77 -6 0 -10 -10 -10 -21 0 -19 -4 -21 -35 -16 -19 3
-47 15 -62 27 -21 16 -28 18 -35 8 -6 -10 -14 -7 -31 13 -20 22 -26 24 -40 14
-9 -7 -18 -26 -20 -44 -4 -33 -17 -55 -17 -28 0 8 -5 28 -10 43 l-11 27 -25
-34 c-22 -30 -23 -35 -9 -45 15 -11 21 -34 9 -34 -4 0 -12 7 -19 16 -9 14 -16
14 -33 5 -13 -7 -27 -9 -32 -6 -6 3 -10 1 -10 -6 0 -7 -11 0 -24 16 -13 15
-29 24 -35 21 -6 -4 -11 -3 -11 3 0 17 -55 5 -58 -13 -5 -21 -20 -21 -24 2 -3
9 -8 -2 -12 -25 -8 -44 -22 -55 -32 -28 -5 13 -11 11 -30 -10 -15 -16 -34 -25
-54 -25 -30 0 -43 -23 -17 -34 6 -2 1 -4 -13 -3 -28 2 -52 33 -44 59 3 10 -2
19 -16 23 -11 3 -20 11 -20 16 0 6 -4 7 -10 4 -5 -3 -10 -15 -10 -26 0 -10 -7
-19 -15 -19 -8 0 -15 6 -15 14 0 18 -28 14 -41 -5 -8 -12 -12 -11 -25 6 -8 11
-13 30 -11 42 3 15 -1 23 -10 23 -9 0 -12 -7 -9 -17 3 -10 -1 -29 -9 -43 -14
-24 -15 -23 -9 18 6 40 5 42 -18 42 -23 0 -25 3 -26 63 -1 34 1 90 4 123 4 50
9 64 27 73 12 6 14 9 5 7 -19 -6 -25 9 -8 19 6 4 10 12 8 18 -8 42 40 163 68
174 13 5 13 7 2 15 -10 7 -10 11 5 22 9 7 17 18 17 25 0 6 4 11 10 11 5 0 7 7
4 15 -4 9 0 15 10 15 9 0 16 -3 16 -7z m1775 -533 c3 -5 -1 -10 -9 -10 -8 0
-18 5 -21 10 -3 6 1 10 9 10 8 0 18 -4 21 -10z m-920 -30 c3 -5 1 -10 -4 -10
-6 0 -11 5 -11 10 0 6 2 10 4 10 3 0 8 -4 11 -10z m205 -38 l-1 -27 -13 25
c-15 25 -12 45 5 35 5 -4 9 -18 9 -33z m-323 6 c-3 -8 -6 -5 -6 6 -1 11 2 17
5 13 3 -3 4 -12 1 -19z m-560 -110 c-3 -8 -6 -5 -6 6 -1 11 2 17 5 13 3 -3 4
-12 1 -19z m-107 -104 c0 -2 -7 -4 -15 -4 -8 0 -15 4 -15 10 0 5 7 7 15 4 8
-4 15 -8 15 -10z"/>
<path d="M4805 610 c-4 -6 -3 -16 3 -22 6 -6 12 -6 17 2 4 6 3 16 -3 22 -6 6
-12 6 -17 -2z"/>
<path d="M4465 550 c3 -5 8 -10 11 -10 2 0 4 5 4 10 0 6 -5 10 -11 10 -5 0 -7
-4 -4 -10z"/>
<path d="M141 6854 c0 -11 3 -14 6 -6 3 7 2 16 -1 19 -3 4 -6 -2 -5 -13z"/>
<path d="M937 6133 c-10 -9 -9 -23 2 -23 5 0 11 7 15 15 5 15 -5 20 -17 8z"/>
<path d="M85 5950 c-3 -5 3 -10 14 -10 12 0 21 5 21 10 0 6 -6 10 -14 10 -8 0
-18 -4 -21 -10z"/>
<path d="M30 5520 c0 -5 7 -10 16 -10 8 0 12 5 9 10 -3 6 -10 10 -16 10 -5 0
-9 -4 -9 -10z"/>
<path d="M850 5375 c0 -8 5 -15 10 -15 6 0 10 -19 10 -42 0 -32 3 -39 10 -28
9 13 10 13 11 0 1 -8 1 -18 0 -22 0 -5 3 -8 8 -8 15 0 7 110 -9 120 -22 14
-40 12 -40 -5z"/>
<path d="M1446 5237 c-16 -12 -15 -14 8 -36 31 -30 78 -22 95 16 11 25 11 25
-23 19 -20 -4 -37 -2 -41 4 -8 13 -17 13 -39 -3z"/>
<path d="M2491 5243 c9 -2 22 -15 29 -28 16 -30 58 -33 95 -9 21 14 22 18 10
30 -19 20 -35 17 -56 -8 l-19 -21 -23 21 c-13 12 -30 21 -38 21 -10 -1 -10 -2
2 -6z"/>
<path d="M890 5074 c0 -24 48 -77 61 -68 14 8 -4 44 -22 44 -11 0 -19 7 -19
15 0 8 -4 15 -10 15 -5 0 -10 -3 -10 -6z"/>
<path d="M798 4548 c-42 -68 -48 -116 -18 -143 18 -16 20 -16 54 4 33 21 34
23 24 58 -5 20 -18 52 -28 70 l-18 33 -14 -22z"/>
<path d="M966 4240 c4 -26 0 -47 -15 -76 -12 -21 -21 -51 -21 -65 0 -15 -7
-32 -15 -39 -8 -7 -15 -25 -15 -39 0 -16 -20 -56 -50 -98 -56 -79 -86 -151
-71 -166 6 -6 28 2 61 23 48 31 53 32 95 21 24 -6 50 -11 58 -11 21 0 76 56
83 85 6 24 -14 84 -28 86 -5 1 -12 3 -18 4 -5 1 -14 3 -18 4 -15 2 -52 38 -52
50 0 6 -4 11 -10 11 -18 0 -10 42 11 61 12 10 41 21 66 25 24 3 47 13 50 21 3
8 -2 43 -12 79 l-17 64 -44 -2 -44 -1 6 -37z"/>
<path d="M4053 4240 c-1 -11 4 -20 13 -20 8 0 14 9 14 20 0 11 -6 20 -13 20
-7 0 -13 -9 -14 -20z"/>
<path d="M6610 4198 c-28 -29 -58 -66 -67 -83 -9 -16 -20 -33 -25 -36 -13 -8
-18 -79 -6 -79 5 0 2 -8 -8 -17 -17 -17 -17 -18 5 -21 40 -6 91 61 91 121 0
13 8 31 18 40 17 15 20 15 43 0 38 -25 49 -44 50 -87 0 -23 3 -35 6 -28 4 10
9 8 20 -8 11 -15 18 -18 27 -11 21 17 -14 171 -39 171 -15 1 -55 36 -55 49 0
6 9 11 21 11 11 0 18 4 14 10 -3 5 -13 6 -22 3 -11 -4 -14 -3 -9 5 19 30 -19
7 -64 -40z"/>
<path d="M6407 4059 c3 -11 16 -26 29 -31 13 -6 24 -15 24 -20 0 -16 19 -8 22
10 2 10 -8 25 -29 40 -40 28 -53 28 -46 1z"/>
<path d="M4641 4044 c0 -11 3 -14 6 -6 3 7 2 16 -1 19 -3 4 -6 -2 -5 -13z"/>
<path d="M4705 4050 c-3 -5 -1 -10 4 -10 6 0 11 5 11 10 0 6 -2 10 -4 10 -3 0
-8 -4 -11 -10z"/>
<path d="M4820 4040 c0 -19 3 -21 12 -12 9 9 9 15 0 24 -9 9 -12 7 -12 -12z"/>
<path d="M5215 3972 c3 -17 -1 -40 -10 -60 -11 -22 -14 -42 -9 -65 7 -31 7
-31 17 -9 14 31 23 28 41 -18 12 -30 20 -38 33 -33 10 4 12 8 5 11 -7 2 -12
10 -12 18 0 11 9 13 40 8 27 -4 40 -3 40 5 0 6 -7 11 -16 11 -15 0 -15 2 0 25
15 22 15 25 -1 34 -10 5 -26 5 -41 0 -32 -12 -46 1 -62 56 -14 48 -36 63 -25
17z"/>
<path d="M4953 3925 c-9 -9 -9 -16 -2 -20 6 -4 3 -12 -8 -20 -14 -10 -15 -17
-7 -25 9 -9 18 -8 38 5 24 16 25 18 10 46 -17 33 -15 33 -31 14z"/>
<path d="M5120 3910 c0 -5 7 -10 15 -10 8 0 15 5 15 10 0 6 -7 10 -15 10 -8 0
-15 -4 -15 -10z"/>
<path d="M1180 3877 c0 -2 11 -18 25 -37 20 -27 25 -30 25 -14 0 11 -9 27 -20
37 -19 16 -30 21 -30 14z"/>
<path d="M5433 3820 c4 -14 7 -28 7 -32 0 -5 5 -8 10 -8 16 0 12 30 -7 48 -16
16 -16 15 -10 -8z"/>
<path d="M1245 3799 c-4 -6 2 -20 13 -31 26 -26 36 -10 12 20 -12 15 -21 19
-25 11z"/>
<path d="M5540 3706 c0 -14 5 -26 10 -26 6 0 10 9 10 19 0 11 -4 23 -10 26 -6
4 -10 -5 -10 -19z"/>
<path d="M5620 3670 c0 -5 7 -10 15 -10 8 0 15 5 15 10 0 6 -7 10 -15 10 -8 0
-15 -4 -15 -10z"/>
<path d="M5148 3153 c-19 -3 -28 -10 -28 -23 0 -21 30 -36 41 -19 4 8 19 10
39 6 28 -6 30 -5 16 9 -9 8 -16 20 -16 25 0 9 -3 9 -52 2z"/>
<path d="M5357 3021 c-6 -25 5 -42 22 -32 10 7 11 13 2 30 -14 26 -17 26 -24
2z"/>
<path d="M5299 2968 c-13 -9 -14 -18 -6 -50 12 -50 27 -49 27 2 0 22 5 40 10
40 6 0 10 5 10 10 0 13 -21 12 -41 -2z"/>
<path d="M3475 2940 c-23 -6 -15 -8 34 -9 35 0 62 1 60 3 -10 9 -67 12 -94 6z"/>
<path d="M3798 2873 c7 -3 16 -2 19 1 4 3 -2 6 -13 5 -11 0 -14 -3 -6 -6z"/>
<path d="M6160 2291 c0 -11 4 -21 9 -21 18 0 21 18 6 30 -13 10 -15 9 -15 -9z"/>
<path d="M6228 2263 c-29 -7 -20 -23 13 -23 27 0 30 2 19 15 -7 8 -13 14 -14
14 0 -1 -9 -3 -18 -6z"/>
<path d="M7153 2175 c0 -22 2 -30 4 -17 2 12 2 30 0 40 -3 9 -5 -1 -4 -23z"/>
<path d="M6263 2159 c-2 -23 3 -25 10 -4 4 8 3 16 -1 19 -4 3 -9 -4 -9 -15z"/>
<path d="M6175 2040 c4 -6 11 -8 16 -5 14 9 11 15 -7 15 -8 0 -12 -5 -9 -10z"/>
</g>
</svg>
